<?xml version="1.0" encoding="UTF-8"?><svg id="Layer_2" xmlns="http://www.w3.org/2000/svg" viewBox="0 0 133.25 120"><defs><style>.cls-1{fill:#342e4c;}</style></defs><g id="Layer_1-2"><path class="cls-1" d="M66.25,77.55c0,5.21,2.6,8.76,7.82,8.76s7.68-3.71,7.68-8.88v-3.77h-15.51v3.89Z"/><path class="cls-1" d="M130.95,51.41l-24.72-42.82c-3.07-5.32-8.74-8.59-14.88-8.59h-49.44c-6.14,0-11.81,3.28-14.88,8.59L2.3,51.41c-3.07,5.32-3.07,11.87,0,17.18l24.72,42.82c3.07,5.32,8.74,8.59,14.88,8.59h49.44c6.14,0,11.81-3.28,14.88-8.59l24.72-42.82c3.07-5.32,3.07-11.87,0-17.18ZM97.72,78.58v-4.93h-7.98v3.56c0,9.6-6.17,17.08-15.77,17.08h0c-9.6,0-15.72-7.49-15.72-17.08v-3.56h-22.42c-1.1,0-2-.89-2-2v-5.53c0-.21.07-.42.2-.6l18.4-24.77h-15.13c-1.1,0-2-.89-2-2v-3.86c0-1.1.89-2,2-2h23.36c1.1,0,2,.89,2,2v5.53c0,.22-.07.43-.2.6l-18.53,24.77h14.33v-11.35c0-1.1.89-2,2-2h4c1.1,0,2,.89,2,2v11.35h15.51v-13.39h-4.91l8.92-8.75,8.92,8.75h-4.93v13.39h7.98v-5.05l8.75,8.92-8.75,8.92Z"/></g></svg>