<?xml version="1.0" encoding="UTF-8"?><svg id="Layer_2" xmlns="http://www.w3.org/2000/svg" viewBox="0 0 133.25 120"><defs><style>.cls-1{fill:#b0b3e6;}.cls-2{fill:#342e4c;}</style></defs><g id="Layer_1-2"><path class="cls-2" d="M91.34,0h-49.44c-6.14,0-11.81,3.28-14.88,8.59L2.3,51.41c-3.07,5.32-3.07,11.87,0,17.18l24.72,42.82c3.07,5.32,8.74,8.59,14.88,8.59h49.44c6.14,0,11.81-3.28,14.88-8.59l24.72-42.82c3.07-5.32,3.07-11.87,0-17.18l-24.72-42.82c-3.07-5.32-8.74-8.59-14.88-8.59Z"/><path class="cls-1" d="M106.48,69.67l-8.75-8.92v5.05h-7.98v-13.39h4.93l-8.92-8.75-8.92,8.75h4.91v13.39h-15.51v-11.35c0-1.1-.89-2-2-2h-4c-1.1,0-2,.89-2,2v11.35h-14.33l18.53-24.77c.13-.17.2-.38.2-.6v-5.53c0-1.1-.89-2-2-2h-23.36c-1.1,0-2,.89-2,2v3.86c0,1.1.89,2,2,2h15.13l-18.4,24.77c-.13.17-.2.38-.2.6v5.53c0,1.1.89,2,2,2h22.42v3.56c0,9.6,6.12,17.08,15.72,17.08h0c9.6,0,15.77-7.49,15.77-17.08v-3.56h7.98v4.93l8.75-8.92ZM81.75,77.43c0,5.17-2.23,8.88-7.68,8.88s-7.82-3.55-7.82-8.76v-3.89h15.51v3.77Z"/></g></svg>