<?xml version="1.0" encoding="UTF-8"?><svg xmlns="http://www.w3.org/2000/svg" xmlns:xlink="http://www.w3.org/1999/xlink" viewBox="0 0 150.44 177.37"><defs><style>.cls-1{fill:url(#linear-gradient-2);}.cls-2{fill:url(#linear-gradient-4);}.cls-3{fill:url(#radial-gradient-5);}.cls-4{fill:url(#radial-gradient);}.cls-5{fill:url(#radial-gradient-3);}.cls-6{fill:url(#linear-gradient-3);}.cls-7{isolation:isolate;}.cls-8{fill:url(#radial-gradient-2);}.cls-9{fill:url(#radial-gradient-4);}.cls-10{mix-blend-mode:overlay;}.cls-11{mix-blend-mode:darken;}.cls-11,.cls-12{opacity:.65;}.cls-12{mix-blend-mode:color-dodge;}.cls-13{fill:url(#linear-gradient);}.cls-14{fill:#342e4c;}</style><linearGradient id="linear-gradient" x1="-89.74" y1="55.73" x2="174.63" y2="55.73" gradientTransform="translate(31.88 -3.46) scale(.98)" gradientUnits="userSpaceOnUse"><stop offset=".17" stop-color="#342e4c"/><stop offset=".2" stop-color="#3b3261"/><stop offset=".3" stop-color="#4d3d93"/><stop offset=".39" stop-color="#5b44b7"/><stop offset=".46" stop-color="#6349cd"/><stop offset=".5" stop-color="#664bd6"/><stop offset=".56" stop-color="#6349cf"/><stop offset=".64" stop-color="#5c45bb"/><stop offset=".74" stop-color="#513e9c"/><stop offset=".86" stop-color="#413570"/><stop offset=".94" stop-color="#342e4c"/></linearGradient><linearGradient id="linear-gradient-2" x1="-29.25" y1="55.73" x2="161.93" y2="55.73" gradientTransform="translate(31.88 -3.46) scale(.98)" gradientUnits="userSpaceOnUse"><stop offset=".17" stop-color="#342e4c"/><stop offset=".2" stop-color="#3b3261"/><stop offset=".3" stop-color="#4d3d93"/><stop offset=".39" stop-color="#5b44b7"/><stop offset=".46" stop-color="#6349cd"/><stop offset=".5" stop-color="#664bd6"/><stop offset=".55" stop-color="#6349cf"/><stop offset=".63" stop-color="#5c45bb"/><stop offset=".73" stop-color="#513e9c"/><stop offset=".83" stop-color="#413570"/><stop offset=".91" stop-color="#342e4c"/></linearGradient><linearGradient id="linear-gradient-3" x1="32.97" y1="55.73" x2="102.32" y2="55.73" gradientTransform="translate(31.88 -3.46) scale(.98)" gradientUnits="userSpaceOnUse"><stop offset=".31" stop-color="#664bd6" stop-opacity="0"/><stop offset=".39" stop-color="#6148c9" stop-opacity=".09"/><stop offset=".52" stop-color="#5441a6" stop-opacity=".34"/><stop offset=".66" stop-color="#40356d" stop-opacity=".76"/><stop offset=".73" stop-color="#342e4c"/><stop offset="1" stop-color="#664bd6" stop-opacity="0"/></linearGradient><linearGradient id="linear-gradient-4" x1="51.95" y1="55.73" x2="92.64" y2="55.73" gradientTransform="translate(31.88 -3.46) scale(.98)" gradientUnits="userSpaceOnUse"><stop offset=".46" stop-color="#664bd6" stop-opacity="0"/><stop offset=".48" stop-color="#664bd6" stop-opacity=".03"/><stop offset=".52" stop-color="#664bd6" stop-opacity=".12"/><stop offset=".56" stop-color="#664bd6" stop-opacity=".27"/><stop offset=".61" stop-color="#664bd6" stop-opacity=".48"/><stop offset=".66" stop-color="#664bd6" stop-opacity=".74"/><stop offset=".71" stop-color="#664bd6"/><stop offset="1" stop-color="#664bd6" stop-opacity="0"/></linearGradient><radialGradient id="radial-gradient" cx="47.86" cy="55.73" fx="47.86" fy="55.73" r="43.16" gradientTransform="translate(31.88 -3.46) scale(.98)" gradientUnits="userSpaceOnUse"><stop offset="0" stop-color="#664bd6" stop-opacity=".5"/><stop offset=".17" stop-color="#664bd6" stop-opacity=".45"/><stop offset=".46" stop-color="#664bd6" stop-opacity=".32"/><stop offset=".84" stop-color="#664bd6" stop-opacity=".1"/><stop offset="1" stop-color="#664bd6" stop-opacity="0"/></radialGradient><radialGradient id="radial-gradient-2" cx="110.34" cy="65.64" fx="110.34" fy="65.64" r="23.03" gradientTransform="translate(31.88 -3.46) scale(.98)" gradientUnits="userSpaceOnUse"><stop offset="0" stop-color="#49f5f4"/><stop offset=".89" stop-color="#664bd6" stop-opacity="0"/></radialGradient><radialGradient id="radial-gradient-3" cx="112.07" cy="65.87" fx="112.07" fy="65.87" r="23.03" gradientTransform="translate(31.88 -3.46) scale(.98)" gradientUnits="userSpaceOnUse"><stop offset="0" stop-color="#49f5f4"/><stop offset="1" stop-color="#664bd6" stop-opacity="0"/></radialGradient><radialGradient id="radial-gradient-4" cx="78.26" cy="15.46" fx="78.26" fy="15.46" r="35.83" xlink:href="#radial-gradient-3"/><radialGradient id="radial-gradient-5" cx="77.18" cy="21.8" fx="77.18" fy="21.8" r="25.14" xlink:href="#radial-gradient-3"/></defs><g class="cls-7"><g id="Layer_2"><g id="Layer_1-2"><path class="cls-13" d="M139.47,61.36l-14.61-14.88v8.42h-13.32v-22.35h8.22l-14.88-14.61-14.88,14.61h8.2v22.35h-25.88v-18.94c0-1.84-1.49-3.33-3.33-3.33h-6.67c-1.84,0-3.33,1.49-3.33,3.33v18.94h-23.91l30.93-41.35c.22-.29.33-.64.33-1V3.33c0-1.84-1.49-3.33-3.33-3.33H24.02c-1.84,0-3.33,1.49-3.33,3.33v6.45c0,1.84,1.49,3.33,3.33,3.33h25.26l-30.71,41.35c-.21.29-.33.64-.33.99v9.23c0,1.84,1.49,3.33,3.33,3.33h37.42v5.94c0,16.02,10.22,28.51,26.24,28.51h0c16.02,0,26.31-12.49,26.31-28.51v-5.94h13.32v8.22l14.61-14.88ZM98.2,74.31c0,8.63-3.73,14.82-12.82,14.82s-13.06-5.93-13.06-14.62v-6.49h25.88v6.29Z"/><g class="cls-12"><path class="cls-1" d="M139.47,61.36l-14.61-14.88v8.42h-13.32v-22.35h8.22l-14.88-14.61-14.88,14.61h8.2v22.35h-25.88v-18.94c0-1.84-1.49-3.33-3.33-3.33h-6.67c-1.84,0-3.33,1.49-3.33,3.33v18.94h-23.91l30.93-41.35c.22-.29.33-.64.33-1V3.33c0-1.84-1.49-3.33-3.33-3.33H24.02c-1.84,0-3.33,1.49-3.33,3.33v6.45c0,1.84,1.49,3.33,3.33,3.33h25.26l-30.71,41.35c-.21.29-.33.64-.33.99v9.23c0,1.84,1.49,3.33,3.33,3.33h37.42v5.94c0,16.02,10.22,28.51,26.24,28.51h0c16.02,0,26.31-12.49,26.31-28.51v-5.94h13.32v8.22l14.61-14.88ZM98.2,74.31c0,8.63-3.73,14.82-12.82,14.82s-13.06-5.93-13.06-14.62v-6.49h25.88v6.29Z"/></g><g class="cls-11"><path class="cls-6" d="M139.47,61.36l-14.61-14.88v8.42h-13.32v-22.35h8.22l-14.88-14.61-14.88,14.61h8.2v22.35h-25.88v-18.94c0-1.84-1.49-3.33-3.33-3.33h-6.67c-1.84,0-3.33,1.49-3.33,3.33v18.94h-23.91l30.93-41.35c.22-.29.33-.64.33-1V3.33c0-1.84-1.49-3.33-3.33-3.33H24.02c-1.84,0-3.33,1.49-3.33,3.33v6.45c0,1.84,1.49,3.33,3.33,3.33h25.26l-30.71,41.35c-.21.29-.33.64-.33.99v9.23c0,1.84,1.49,3.33,3.33,3.33h37.42v5.94c0,16.02,10.22,28.51,26.24,28.51h0c16.02,0,26.31-12.49,26.31-28.51v-5.94h13.32v8.22l14.61-14.88ZM98.2,74.31c0,8.63-3.73,14.82-12.82,14.82s-13.06-5.93-13.06-14.62v-6.49h25.88v6.29Z"/></g><g class="cls-12"><path class="cls-2" d="M139.47,61.36l-14.61-14.88v8.42h-13.32v-22.35h8.22l-14.88-14.61-14.88,14.61h8.2v22.35h-25.88v-18.94c0-1.84-1.49-3.33-3.33-3.33h-6.67c-1.84,0-3.33,1.49-3.33,3.33v18.94h-23.91l30.93-41.35c.22-.29.33-.64.33-1V3.33c0-1.84-1.49-3.33-3.33-3.33H24.02c-1.84,0-3.33,1.49-3.33,3.33v6.45c0,1.84,1.49,3.33,3.33,3.33h25.26l-30.71,41.35c-.21.29-.33.64-.33.99v9.23c0,1.84,1.49,3.33,3.33,3.33h37.42v5.94c0,16.02,10.22,28.51,26.24,28.51h0c16.02,0,26.31-12.49,26.31-28.51v-5.94h13.32v8.22l14.61-14.88ZM98.2,74.31c0,8.63-3.73,14.82-12.82,14.82s-13.06-5.93-13.06-14.62v-6.49h25.88v6.29Z"/></g><g class="cls-12"><path class="cls-4" d="M139.47,61.36l-14.61-14.88v8.42h-13.32v-22.35h8.22l-14.88-14.61-14.88,14.61h8.2v22.35h-25.88v-18.94c0-1.84-1.49-3.33-3.33-3.33h-6.67c-1.84,0-3.33,1.49-3.33,3.33v18.94h-23.91l30.93-41.35c.22-.29.33-.64.33-1V3.33c0-1.84-1.49-3.33-3.33-3.33H24.02c-1.84,0-3.33,1.49-3.33,3.33v6.45c0,1.84,1.49,3.33,3.33,3.33h25.26l-30.71,41.35c-.21.29-.33.64-.33.99v9.23c0,1.84,1.49,3.33,3.33,3.33h37.42v5.94c0,16.02,10.22,28.51,26.24,28.51h0c16.02,0,26.31-12.49,26.31-28.51v-5.94h13.32v8.22l14.61-14.88ZM98.2,74.31c0,8.63-3.73,14.82-12.82,14.82s-13.06-5.93-13.06-14.62v-6.49h25.88v6.29Z"/></g><path class="cls-8" d="M139.47,61.36l-14.61-14.88v8.42h-13.32v-22.35h8.22l-14.88-14.61-14.88,14.61h8.2v22.35h-25.88v-18.94c0-1.84-1.49-3.33-3.33-3.33h-6.67c-1.84,0-3.33,1.49-3.33,3.33v18.94h-23.91l30.93-41.35c.22-.29.33-.64.33-1V3.33c0-1.84-1.49-3.33-3.33-3.33H24.02c-1.84,0-3.33,1.49-3.33,3.33v6.45c0,1.84,1.49,3.33,3.33,3.33h25.26l-30.71,41.35c-.21.29-.33.64-.33.99v9.23c0,1.84,1.49,3.33,3.33,3.33h37.42v5.94c0,16.02,10.22,28.51,26.24,28.51h0c16.02,0,26.31-12.49,26.31-28.51v-5.94h13.32v8.22l14.61-14.88ZM98.2,74.31c0,8.63-3.73,14.82-12.82,14.82s-13.06-5.93-13.06-14.62v-6.49h25.88v6.29Z"/><g class="cls-10"><path class="cls-5" d="M139.47,61.36l-14.61-14.88v8.42h-13.32v-22.35h8.22l-14.88-14.61-14.88,14.61h8.2v22.35h-25.88v-18.94c0-1.84-1.49-3.33-3.33-3.33h-6.67c-1.84,0-3.33,1.49-3.33,3.33v18.94h-23.91l30.93-41.35c.22-.29.33-.64.33-1V3.33c0-1.84-1.49-3.33-3.33-3.33H24.02c-1.84,0-3.33,1.49-3.33,3.33v6.45c0,1.84,1.49,3.33,3.33,3.33h25.26l-30.71,41.35c-.21.29-.33.64-.33.99v9.23c0,1.84,1.49,3.33,3.33,3.33h37.42v5.94c0,16.02,10.22,28.51,26.24,28.51h0c16.02,0,26.31-12.49,26.31-28.51v-5.94h13.32v8.22l14.61-14.88ZM98.2,74.31c0,8.63-3.73,14.82-12.82,14.82s-13.06-5.93-13.06-14.62v-6.49h25.88v6.29Z"/></g><path class="cls-9" d="M139.47,61.36l-14.61-14.88v8.42h-13.32v-22.35h8.22l-14.88-14.61-14.88,14.61h8.2v22.35h-25.88v-18.94c0-1.84-1.49-3.33-3.33-3.33h-6.67c-1.84,0-3.33,1.49-3.33,3.33v18.94h-23.91l30.93-41.35c.22-.29.33-.64.33-1V3.33c0-1.84-1.49-3.33-3.33-3.33H24.02c-1.84,0-3.33,1.49-3.33,3.33v6.45c0,1.84,1.49,3.33,3.33,3.33h25.26l-30.71,41.35c-.21.29-.33.64-.33.99v9.23c0,1.84,1.49,3.33,3.33,3.33h37.42v5.94c0,16.02,10.22,28.51,26.24,28.51h0c16.02,0,26.31-12.49,26.31-28.51v-5.94h13.32v8.22l14.61-14.88ZM98.2,74.31c0,8.63-3.73,14.82-12.82,14.82s-13.06-5.93-13.06-14.62v-6.49h25.88v6.29Z"/><g class="cls-10"><path class="cls-3" d="M139.47,61.36l-14.61-14.88v8.42h-13.32v-22.35h8.22l-14.88-14.61-14.88,14.61h8.2v22.35h-25.88v-18.94c0-1.84-1.49-3.33-3.33-3.33h-6.67c-1.84,0-3.33,1.49-3.33,3.33v18.94h-23.91l30.93-41.35c.22-.29.33-.64.33-1V3.33c0-1.84-1.49-3.33-3.33-3.33H24.02c-1.84,0-3.33,1.49-3.33,3.33v6.45c0,1.84,1.49,3.33,3.33,3.33h25.26l-30.71,41.35c-.21.29-.33.64-.33.99v9.23c0,1.84,1.49,3.33,3.33,3.33h37.42v5.94c0,16.02,10.22,28.51,26.24,28.51h0c16.02,0,26.31-12.49,26.31-28.51v-5.94h13.32v8.22l14.61-14.88ZM98.2,74.31c0,8.63-3.73,14.82-12.82,14.82s-13.06-5.93-13.06-14.62v-6.49h25.88v6.29Z"/></g><path class="cls-14" d="M53.44,153.12c-2.23,0-7.45,0-11.58-3.79-4.57-4.2-4.78-10.07-4.74-11.77v-22.12h3.32v20.66c-.11,1.37-.1,4.43,1,6.92,1.97,4.47,6.82,7.32,12.46,7.15,4.67-.14,9-2.1,11.14-6.15,1.59-3.01,1.51-6.64,1.39-7.97v-20.61h3.32v22.04c.04,1.74-.18,7.66-4.74,11.85-4.13,3.79-9.35,3.79-11.58,3.79Z"/><path class="cls-14" d="M133.26,177.37c-8.59,0-14.1-4.7-16.13-12.37l2.59.02c1.69,6.76,6.47,9.73,13.53,9.73,8.81,0,14.54-5.14,14.54-15.56v-12.95c-.75.95-5.27,6.46-12.88,6.88-1.48.08-7.03.38-11.57-3.79-4.57-4.2-4.06-10.07-4.02-11.77v-22.12h2.6v20.66c-.08,2.11.25,4.21,1,6.19.51,1.36,1.57,4.18,4.37,6.3.38.29,3.43,2.18,7.62,2.1,7.4-.15,11.43-7.07,11.6-7.39l.03-.07c.83-1.86,1.25-5.02,1.25-7.14v-20.66s2.65,0,2.65,0v43.83c0,10.56-6.38,18.1-17.19,18.1Z"/><polygon class="cls-14" points="81.22 153.12 81.22 149.52 104.48 118.05 81.22 118.05 81.22 115.44 106.89 115.44 106.89 119.25 83.56 150.51 106.89 150.51 106.89 153.12 81.22 153.12"/><polygon class="cls-14" points="0 153.12 0 149.52 23.26 118.05 0 118.05 0 115.44 25.66 115.44 25.66 119.25 2.33 150.51 25.66 150.51 25.66 153.12 0 153.12"/></g></g></g></svg>