<?xml version="1.0" encoding="UTF-8"?><svg xmlns="http://www.w3.org/2000/svg" xmlns:xlink="http://www.w3.org/1999/xlink" viewBox="0 0 350 115.77"><defs><style>.cls-1{fill:url(#linear-gradient-2);}.cls-2{fill:url(#linear-gradient-4);}.cls-3{fill:url(#radial-gradient-5);}.cls-4{fill:url(#radial-gradient);}.cls-5{fill:url(#radial-gradient-3);}.cls-6{fill:url(#linear-gradient-3);}.cls-7{isolation:isolate;}.cls-8{fill:url(#radial-gradient-2);}.cls-9{fill:url(#radial-gradient-4);}.cls-10{mix-blend-mode:overlay;}.cls-11{mix-blend-mode:darken;}.cls-11,.cls-12{opacity:.65;}.cls-12{mix-blend-mode:color-dodge;}.cls-13{fill:url(#linear-gradient);}.cls-14{fill:#342e4c;}</style><linearGradient id="linear-gradient" x1="-113.32" y1="49.88" x2="183.61" y2="49.88" gradientTransform="translate(27.78 8.64) scale(.99)" gradientUnits="userSpaceOnUse"><stop offset=".17" stop-color="#342e4c"/><stop offset=".2" stop-color="#3b3261"/><stop offset=".3" stop-color="#4d3d93"/><stop offset=".39" stop-color="#5b44b7"/><stop offset=".46" stop-color="#6349cd"/><stop offset=".5" stop-color="#664bd6"/><stop offset=".56" stop-color="#6349cf"/><stop offset=".64" stop-color="#5c45bb"/><stop offset=".74" stop-color="#513e9c"/><stop offset=".86" stop-color="#413570"/><stop offset=".94" stop-color="#342e4c"/></linearGradient><linearGradient id="linear-gradient-2" x1="-45.38" y1="49.88" x2="169.34" y2="49.88" gradientTransform="translate(27.78 8.64) scale(.99)" gradientUnits="userSpaceOnUse"><stop offset=".17" stop-color="#342e4c"/><stop offset=".2" stop-color="#3b3261"/><stop offset=".3" stop-color="#4d3d93"/><stop offset=".39" stop-color="#5b44b7"/><stop offset=".46" stop-color="#6349cd"/><stop offset=".5" stop-color="#664bd6"/><stop offset=".55" stop-color="#6349cf"/><stop offset=".63" stop-color="#5c45bb"/><stop offset=".73" stop-color="#513e9c"/><stop offset=".83" stop-color="#413570"/><stop offset=".91" stop-color="#342e4c"/></linearGradient><linearGradient id="linear-gradient-3" x1="24.5" y1="49.88" x2="102.39" y2="49.88" gradientTransform="translate(27.78 8.64) scale(.99)" gradientUnits="userSpaceOnUse"><stop offset=".31" stop-color="#664bd6" stop-opacity="0"/><stop offset=".39" stop-color="#6148c9" stop-opacity=".09"/><stop offset=".52" stop-color="#5441a6" stop-opacity=".34"/><stop offset=".66" stop-color="#40356d" stop-opacity=".76"/><stop offset=".73" stop-color="#342e4c"/><stop offset="1" stop-color="#664bd6" stop-opacity="0"/></linearGradient><linearGradient id="linear-gradient-4" x1="45.82" y1="49.88" x2="91.52" y2="49.88" gradientTransform="translate(27.78 8.64) scale(.99)" gradientUnits="userSpaceOnUse"><stop offset=".46" stop-color="#664bd6" stop-opacity="0"/><stop offset=".48" stop-color="#664bd6" stop-opacity=".03"/><stop offset=".52" stop-color="#664bd6" stop-opacity=".12"/><stop offset=".56" stop-color="#664bd6" stop-opacity=".27"/><stop offset=".61" stop-color="#664bd6" stop-opacity=".48"/><stop offset=".66" stop-color="#664bd6" stop-opacity=".74"/><stop offset=".71" stop-color="#664bd6"/><stop offset="1" stop-color="#664bd6" stop-opacity="0"/></linearGradient><radialGradient id="radial-gradient" cx="41.22" cy="49.88" fx="41.22" fy="49.88" r="48.47" gradientTransform="translate(27.78 8.64) scale(.99)" gradientUnits="userSpaceOnUse"><stop offset="0" stop-color="#664bd6" stop-opacity=".5"/><stop offset=".17" stop-color="#664bd6" stop-opacity=".45"/><stop offset=".46" stop-color="#664bd6" stop-opacity=".32"/><stop offset=".84" stop-color="#664bd6" stop-opacity=".1"/><stop offset="1" stop-color="#664bd6" stop-opacity="0"/></radialGradient><radialGradient id="radial-gradient-2" cx="111.4" cy="61.01" fx="111.4" fy="61.01" r="25.87" gradientTransform="translate(27.78 8.64) scale(.99)" gradientUnits="userSpaceOnUse"><stop offset="0" stop-color="#49f5f4"/><stop offset=".89" stop-color="#664bd6" stop-opacity="0"/></radialGradient><radialGradient id="radial-gradient-3" cx="113.35" cy="61.26" fx="113.35" fy="61.26" r="25.87" gradientTransform="translate(27.78 8.64) scale(.99)" gradientUnits="userSpaceOnUse"><stop offset="0" stop-color="#49f5f4"/><stop offset="1" stop-color="#664bd6" stop-opacity="0"/></radialGradient><radialGradient id="radial-gradient-4" cx="75.37" cy="4.65" fx="75.37" fy="4.65" r="40.24" xlink:href="#radial-gradient-3"/><radialGradient id="radial-gradient-5" cx="74.16" cy="11.77" fx="74.16" fy="11.77" r="28.23" xlink:href="#radial-gradient-3"/></defs><g class="cls-7"><g id="Layer_2"><g id="Layer_1-2"><path class="cls-13" d="M136.96,69.33l-16.5-16.81v9.52h-15.05v-25.25h9.29l-16.81-16.5-16.81,16.5h9.27v25.25h-29.24v-21.4c0-2.08-1.69-3.77-3.77-3.77h-7.53c-2.08,0-3.77,1.69-3.77,3.77v21.4h-27.02L53.97,15.32c.24-.33.38-.72.38-1.13V3.77c0-2.08-1.69-3.77-3.77-3.77H6.53c-2.08,0-3.77,1.69-3.77,3.77v7.28c0,2.08,1.69,3.77,3.77,3.77h28.53L.37,61.53c-.24.32-.37.72-.37,1.12v10.43c0,2.08,1.69,3.77,3.77,3.77h42.27v6.71c0,18.1,11.55,32.21,29.64,32.21h0c18.1,0,29.73-14.11,29.73-32.21v-6.71h15.05v9.29l16.5-16.81ZM90.34,83.95c0,9.75-4.21,16.75-14.49,16.75s-14.75-6.7-14.75-16.52v-7.33h29.24v7.11Z"/><g class="cls-12"><path class="cls-1" d="M136.96,69.33l-16.5-16.81v9.52h-15.05v-25.25h9.29l-16.81-16.5-16.81,16.5h9.27v25.25h-29.24v-21.4c0-2.08-1.69-3.77-3.77-3.77h-7.53c-2.08,0-3.77,1.69-3.77,3.77v21.4h-27.02L53.97,15.32c.24-.33.38-.72.38-1.13V3.77c0-2.08-1.69-3.77-3.77-3.77H6.53c-2.08,0-3.77,1.69-3.77,3.77v7.28c0,2.08,1.69,3.77,3.77,3.77h28.53L.37,61.53c-.24.32-.37.72-.37,1.12v10.43c0,2.08,1.69,3.77,3.77,3.77h42.27v6.71c0,18.1,11.55,32.21,29.64,32.21h0c18.1,0,29.73-14.11,29.73-32.21v-6.71h15.05v9.29l16.5-16.81ZM90.34,83.95c0,9.75-4.21,16.75-14.49,16.75s-14.75-6.7-14.75-16.52v-7.33h29.24v7.11Z"/></g><g class="cls-11"><path class="cls-6" d="M136.96,69.33l-16.5-16.81v9.52h-15.05v-25.25h9.29l-16.81-16.5-16.81,16.5h9.27v25.25h-29.24v-21.4c0-2.08-1.69-3.77-3.77-3.77h-7.53c-2.08,0-3.77,1.69-3.77,3.77v21.4h-27.02L53.97,15.32c.24-.33.38-.72.38-1.13V3.77c0-2.08-1.69-3.77-3.77-3.77H6.53c-2.08,0-3.77,1.69-3.77,3.77v7.28c0,2.08,1.69,3.77,3.77,3.77h28.53L.37,61.53c-.24.32-.37.72-.37,1.12v10.43c0,2.08,1.69,3.77,3.77,3.77h42.27v6.71c0,18.1,11.55,32.21,29.64,32.21h0c18.1,0,29.73-14.11,29.73-32.21v-6.71h15.05v9.29l16.5-16.81ZM90.34,83.95c0,9.75-4.21,16.75-14.49,16.75s-14.75-6.7-14.75-16.52v-7.33h29.24v7.11Z"/></g><g class="cls-12"><path class="cls-2" d="M136.96,69.33l-16.5-16.81v9.52h-15.05v-25.25h9.29l-16.81-16.5-16.81,16.5h9.27v25.25h-29.24v-21.4c0-2.08-1.69-3.77-3.77-3.77h-7.53c-2.08,0-3.77,1.69-3.77,3.77v21.4h-27.02L53.97,15.32c.24-.33.38-.72.38-1.13V3.77c0-2.08-1.69-3.77-3.77-3.77H6.53c-2.08,0-3.77,1.69-3.77,3.77v7.28c0,2.08,1.69,3.77,3.77,3.77h28.53L.37,61.53c-.24.32-.37.72-.37,1.12v10.43c0,2.08,1.69,3.77,3.77,3.77h42.27v6.71c0,18.1,11.55,32.21,29.64,32.21h0c18.1,0,29.73-14.11,29.73-32.21v-6.71h15.05v9.29l16.5-16.81ZM90.34,83.95c0,9.75-4.21,16.75-14.49,16.75s-14.75-6.7-14.75-16.52v-7.33h29.24v7.11Z"/></g><g class="cls-12"><path class="cls-4" d="M136.96,69.33l-16.5-16.81v9.52h-15.05v-25.25h9.29l-16.81-16.5-16.81,16.5h9.27v25.25h-29.24v-21.4c0-2.08-1.69-3.77-3.77-3.77h-7.53c-2.08,0-3.77,1.69-3.77,3.77v21.4h-27.02L53.97,15.32c.24-.33.38-.72.38-1.13V3.77c0-2.08-1.69-3.77-3.77-3.77H6.53c-2.08,0-3.77,1.69-3.77,3.77v7.28c0,2.08,1.69,3.77,3.77,3.77h28.53L.37,61.53c-.24.32-.37.72-.37,1.12v10.43c0,2.08,1.69,3.77,3.77,3.77h42.27v6.71c0,18.1,11.55,32.21,29.64,32.21h0c18.1,0,29.73-14.11,29.73-32.21v-6.71h15.05v9.29l16.5-16.81ZM90.34,83.95c0,9.75-4.21,16.75-14.49,16.75s-14.75-6.7-14.75-16.52v-7.33h29.24v7.11Z"/></g><path class="cls-8" d="M136.96,69.33l-16.5-16.81v9.52h-15.05v-25.25h9.29l-16.81-16.5-16.81,16.5h9.27v25.25h-29.24v-21.4c0-2.08-1.69-3.77-3.77-3.77h-7.53c-2.08,0-3.77,1.69-3.77,3.77v21.4h-27.02L53.97,15.32c.24-.33.38-.72.38-1.13V3.77c0-2.08-1.69-3.77-3.77-3.77H6.53c-2.08,0-3.77,1.69-3.77,3.77v7.28c0,2.08,1.69,3.77,3.77,3.77h28.53L.37,61.53c-.24.32-.37.72-.37,1.12v10.43c0,2.08,1.69,3.77,3.77,3.77h42.27v6.71c0,18.1,11.55,32.21,29.64,32.21h0c18.1,0,29.73-14.11,29.73-32.21v-6.71h15.05v9.29l16.5-16.81ZM90.34,83.95c0,9.75-4.21,16.75-14.49,16.75s-14.75-6.7-14.75-16.52v-7.33h29.24v7.11Z"/><g class="cls-10"><path class="cls-5" d="M136.96,69.33l-16.5-16.81v9.52h-15.05v-25.25h9.29l-16.81-16.5-16.81,16.5h9.27v25.25h-29.24v-21.4c0-2.08-1.69-3.77-3.77-3.77h-7.53c-2.08,0-3.77,1.69-3.77,3.77v21.4h-27.02L53.97,15.32c.24-.33.38-.72.38-1.13V3.77c0-2.08-1.69-3.77-3.77-3.77H6.53c-2.08,0-3.77,1.69-3.77,3.77v7.28c0,2.08,1.69,3.77,3.77,3.77h28.53L.37,61.53c-.24.32-.37.72-.37,1.12v10.43c0,2.08,1.69,3.77,3.77,3.77h42.27v6.71c0,18.1,11.55,32.21,29.64,32.21h0c18.1,0,29.73-14.11,29.73-32.21v-6.71h15.05v9.29l16.5-16.81ZM90.34,83.95c0,9.75-4.21,16.75-14.49,16.75s-14.75-6.7-14.75-16.52v-7.33h29.24v7.11Z"/></g><path class="cls-9" d="M136.96,69.33l-16.5-16.81v9.52h-15.05v-25.25h9.29l-16.81-16.5-16.81,16.5h9.27v25.25h-29.24v-21.4c0-2.08-1.69-3.77-3.77-3.77h-7.53c-2.08,0-3.77,1.69-3.77,3.77v21.4h-27.02L53.97,15.32c.24-.33.38-.72.38-1.13V3.77c0-2.08-1.69-3.77-3.77-3.77H6.53c-2.08,0-3.77,1.69-3.77,3.77v7.28c0,2.08,1.69,3.77,3.77,3.77h28.53L.37,61.53c-.24.32-.37.72-.37,1.12v10.43c0,2.08,1.69,3.77,3.77,3.77h42.27v6.71c0,18.1,11.55,32.21,29.64,32.21h0c18.1,0,29.73-14.11,29.73-32.21v-6.71h15.05v9.29l16.5-16.81ZM90.34,83.95c0,9.75-4.21,16.75-14.49,16.75s-14.75-6.7-14.75-16.52v-7.33h29.24v7.11Z"/><g class="cls-10"><path class="cls-3" d="M136.96,69.33l-16.5-16.81v9.52h-15.05v-25.25h9.29l-16.81-16.5-16.81,16.5h9.27v25.25h-29.24v-21.4c0-2.08-1.69-3.77-3.77-3.77h-7.53c-2.08,0-3.77,1.69-3.77,3.77v21.4h-27.02L53.97,15.32c.24-.33.38-.72.38-1.13V3.77c0-2.08-1.69-3.77-3.77-3.77H6.53c-2.08,0-3.77,1.69-3.77,3.77v7.28c0,2.08,1.69,3.77,3.77,3.77h28.53L.37,61.53c-.24.32-.37.72-.37,1.12v10.43c0,2.08,1.69,3.77,3.77,3.77h42.27v6.71c0,18.1,11.55,32.21,29.64,32.21h0c18.1,0,29.73-14.11,29.73-32.21v-6.71h15.05v9.29l16.5-16.81ZM90.34,83.95c0,9.75-4.21,16.75-14.49,16.75s-14.75-6.7-14.75-16.52v-7.33h29.24v7.11Z"/></g><path class="cls-14" d="M237.55,37.62v27.29c.06,1.39-.01,3.92-1.27,6.68-.51,1.12-1.43,3.15-3.43,4.67-3.61,2.74-9.36,2.8-13.06,0-2.37-1.79-3.31-4.32-3.79-5.59-.89-2.37-.96-4.47-.91-5.76v-27.29h-11.05v28.82c-.04,1.44-.11,10.06,6.59,16.22,5.76,5.29,12.74,5.29,15.69,5.29,2.95,0,9.93,0,15.69-5.29,6.7-6.16,6.63-14.77,6.59-16.22v-28.82h-11.05Z"/><path class="cls-14" d="M349.99,37.62h-11.19c0,8.72,0,19.75,0,28.55,0,1.85-.35,3.69-1.11,5.38,0,.01-.01.03-.02.04-.51,1.12-1.43,3.15-3.43,4.67-3.61,2.74-9.36,2.8-13.06,0-2.37-1.79-3.31-4.32-3.79-5.59-.89-2.37-.96-4.47-.91-5.76v-27.29h-11.05v28.82c-.04,1.44-.11,10.06,6.59,16.22,5.76,5.29,12.74,5.29,15.69,5.29,2.19,0,6.87-.19,11.09-3.72v8.62c0,8.53-5.19,13.95-13.21,13.95-7.4,0-12.35-4.89-13.02-12.46l-10.33-.1c1.11,12.75,10.43,21.43,23.78,21.43,14.32,0,23.97-9.4,23.97-23.49v-54.56h0Z"/><path class="cls-14" d="M258.95,87.95v-9.82c8-10.23,16.01-20.46,24.01-30.68h-24.01v-9.82h36.59v10.07l-24.05,30.44h24.05v9.82h-36.59Z"/><path class="cls-14" d="M157.17,87.95v-9.82c8-10.23,16.01-20.46,24.01-30.68h-24.01v-9.82h36.59v10.07l-24.05,30.44h24.05v9.82h-36.59Z"/></g></g></g></svg>