<?xml version="1.0" encoding="UTF-8"?><svg id="Layer_2" xmlns="http://www.w3.org/2000/svg" viewBox="0 0 144.19 177.37"><defs><style>.cls-1{fill:#664bd6;}.cls-2{fill:#342e4c;}</style></defs><g id="Layer_1-2"><path class="cls-1" d="M133.67,58.81l-14-14.26v8.07h-12.77v-21.42h7.88l-14.26-14-14.26,14h7.86v21.42h-24.8v-18.15c0-1.76-1.43-3.2-3.2-3.2h-6.39c-1.76,0-3.2,1.43-3.2,3.2v18.15h-22.92L63.27,13c.21-.28.32-.61.32-.96V3.2c0-1.76-1.43-3.2-3.2-3.2H23.02c-1.76,0-3.2,1.43-3.2,3.2v6.18c0,1.76,1.43,3.2,3.2,3.2h24.21l-29.43,39.63c-.2.28-.32.61-.32.95v8.85c0,1.76,1.43,3.2,3.2,3.2h35.86v5.69c0,15.36,9.79,27.33,25.15,27.33h0c15.36,0,25.22-11.97,25.22-27.33v-5.69h12.77v7.88l14-14.26ZM94.12,71.22c0,8.27-3.57,14.21-12.29,14.21s-12.51-5.69-12.51-14.02v-6.22h24.8v6.03Z"/><path class="cls-2" d="M51.22,154.13c-2.14,0-7.14,0-11.09-3.64-4.38-4.02-4.59-9.65-4.55-11.28v-21.2h3.19v19.8c-.11,1.32-.1,4.25.96,6.63,1.89,4.28,6.54,7.02,11.94,6.85,4.48-.14,8.63-2.02,10.68-5.89,1.52-2.89,1.45-6.37,1.33-7.64v-19.75h3.19v21.13c.04,1.67-.17,7.34-4.54,11.36-3.96,3.64-8.96,3.64-11.1,3.64Z"/><path class="cls-2" d="M127.72,177.37c-8.23,0-13.51-4.51-15.46-11.85l2.49.02c1.62,6.48,6.2,9.33,12.97,9.33,8.44,0,13.93-4.93,13.93-14.91v-12.41c-.72.91-5.05,6.19-12.34,6.59-1.42.08-6.74.37-11.09-3.64-4.38-4.02-3.89-9.65-3.85-11.28v-21.2h2.49v19.8c-.08,2.02.24,4.03.96,5.94.49,1.3,1.5,4.01,4.19,6.04.37.28,3.28,2.09,7.31,2.01,7.09-.15,10.96-6.78,11.12-7.08l.03-.07c.79-1.78,1.2-4.81,1.2-6.84v-19.8s2.54,0,2.54,0v42.01c0,10.12-6.11,17.35-16.47,17.35Z"/><polygon class="cls-2" points="77.85 154.13 77.85 150.68 100.14 120.52 77.85 120.52 77.85 118.01 102.45 118.01 102.45 121.66 80.09 151.63 102.45 151.63 102.45 154.13 77.85 154.13"/><polygon class="cls-2" points="0 154.13 0 150.68 22.29 120.52 0 120.52 0 118.01 24.6 118.01 24.6 121.66 2.24 151.63 24.6 151.63 24.6 154.13 0 154.13"/></g></svg>