<?xml version="1.0" encoding="UTF-8"?><svg id="Layer_2" xmlns="http://www.w3.org/2000/svg" viewBox="0 0 350 115.77"><g id="Layer_1-2"><path d="M136.96,69.33l-16.5-16.81v9.52h-15.05v-25.25h9.29l-16.81-16.5-16.81,16.5h9.27v25.25h-29.24v-21.4c0-2.08-1.69-3.77-3.77-3.77h-7.53c-2.08,0-3.77,1.69-3.77,3.77v21.4h-27.02L53.97,15.32c.24-.33.38-.72.38-1.13V3.77c0-2.08-1.69-3.77-3.77-3.77H6.53c-2.08,0-3.77,1.69-3.77,3.77v7.28c0,2.08,1.69,3.77,3.77,3.77h28.53L.37,61.53c-.24.32-.37.72-.37,1.12v10.43c0,2.08,1.69,3.77,3.77,3.77h42.27v6.71c0,18.1,11.55,32.21,29.64,32.21h0c18.1,0,29.73-14.11,29.73-32.21v-6.71h15.05v9.29l16.5-16.81ZM90.34,83.95c0,9.75-4.21,16.75-14.49,16.75s-14.75-6.7-14.75-16.52v-7.33h29.24v7.11Z"/><path d="M237.55,37.62v27.29c.06,1.39-.01,3.92-1.27,6.68-.51,1.12-1.43,3.15-3.43,4.67-3.61,2.74-9.36,2.8-13.06,0-2.37-1.79-3.31-4.32-3.79-5.59-.89-2.37-.96-4.47-.91-5.76v-27.29h-11.05v28.82c-.04,1.44-.11,10.06,6.59,16.22,5.76,5.29,12.74,5.29,15.69,5.29,2.95,0,9.93,0,15.69-5.29,6.7-6.16,6.63-14.77,6.59-16.22v-28.82h-11.05Z"/><path d="M349.99,37.62h-11.19c0,8.72,0,19.75,0,28.55,0,1.85-.35,3.69-1.11,5.38,0,.01-.01.03-.02.04-.51,1.12-1.43,3.15-3.43,4.67-3.61,2.74-9.36,2.8-13.06,0-2.37-1.79-3.31-4.32-3.79-5.59-.89-2.37-.96-4.47-.91-5.76v-27.29h-11.05v28.82c-.04,1.44-.11,10.06,6.59,16.22,5.76,5.29,12.74,5.29,15.69,5.29,2.19,0,6.87-.19,11.09-3.72v8.62c0,8.53-5.19,13.95-13.21,13.95-7.4,0-12.35-4.89-13.02-12.46l-10.33-.1c1.11,12.75,10.43,21.43,23.78,21.43,14.32,0,23.97-9.4,23.97-23.49v-54.56h0Z"/><path d="M258.95,87.95v-9.82c8-10.23,16.01-20.46,24.01-30.68h-24.01v-9.82h36.59v10.07l-24.05,30.44h24.05v9.82h-36.59Z"/><path d="M157.17,87.95v-9.82c8-10.23,16.01-20.46,24.01-30.68h-24.01v-9.82h36.59v10.07l-24.05,30.44h24.05v9.82h-36.59Z"/></g></svg>